# xmcd CD database file
#
# Track frame offsets:
#	150
#	28192
#	51095
#
# Disc length: 1054 seconds
#
# Revision: 0
# Processed by: cddbd v1.5PL3 Copyright (c) Steve Scherf et al.
# Submitted via: CDex 1.50beta9
#
DISCID=20041c03
DTITLE=ICE BOX - 落日
DYEAR=1994
DGENRE=J-POP
TTITLE0=落日
TTITLE1=Ｂｉｔｓ　Ｏｆ　ＩＣＥ　ＢＯＸ
TTITLE2=落日　カラオケ
EXTD=YEAR: 1994
EXTT0=
EXTT1=
EXTT2=
PLAYORDER=
